<svg xmlns="http://www.w3.org/2000/svg" width="10" height="7.546" viewBox="0 0 10 7.546">
  <g id="Group_1448" data-name="Group 1448" transform="translate(0 0)">
    <g id="noun_Check_2167433" transform="translate(0 0)">
      <g id="Group_811" data-name="Group 811">
        <path id="Path_550" data-name="Path 550" d="M45.124,105.507l.743.739a.134.134,0,0,1,0,.186l-6.208,6.175a.134.134,0,0,1-.186,0l-3.153-3.134a.131.131,0,0,1,0-.184l.743-.739a.13.13,0,0,1,.183,0l2.316,2.3,5.377-5.348A.133.133,0,0,1,45.124,105.507Z" transform="translate(-36.095 -105.287)" fill="#1278c5"/>
        <g id="Group_810" data-name="Group 810">
          <path id="Path_551" data-name="Path 551" d="M39.2,99.794l.721.721c.024.024.054.044.036.071a.115.115,0,0,1-.016.016l-.1.1-.459.459-.721.721-.894.894-.979.979-.978.978-.889.889-.712.712-.446.446c-.032.032-.065.066-.1.1a.148.148,0,0,1-.013.013c-.022.012-.036,0-.051-.018l-.471-.471-.889-.889-.967-.967-.706-.706c-.05-.05-.1-.1-.149-.149-.014-.015-.024-.026-.009-.046a.993.993,0,0,1,.117-.117l.457-.457.159-.159c.019-.019.03-.032.055-.011.057.049.109.109.162.162l.35.35.953.953.768.768.119.119a.11.11,0,0,0,.152,0l.148-.148.4-.4.6-.6.725-.725.793-.793.8-.8.742-.742.622-.622.44-.44a2.388,2.388,0,0,1,.2-.2c.014-.008.026-.015.041,0,.1.092.257-.061.152-.152a.252.252,0,0,0-.357.015l-.085.085-.369.369-.574.574-.72.72-.795.795-.809.809-.762.762-.643.643-.465.465c-.074.074-.152.144-.222.222l-.01.01H33.7l-.468-.468-.963-.963-.795-.795c-.043-.043-.085-.089-.13-.13a.248.248,0,0,0-.356.012l-.156.156-.47.47c-.038.038-.077.073-.112.112a.248.248,0,0,0,0,.344c.133.143.277.277.414.414l.879.879.991.991.742.742c.055.055.109.11.164.164a.252.252,0,0,0,.362.012c.09-.086.176-.176.264-.264l.587-.587.822-.822.958-.958,1.009-1.009.964-.964.824-.824.6-.6c.092-.092.185-.183.276-.276a.263.263,0,0,0,.069-.117.273.273,0,0,0-.1-.268l-.424-.424-.3-.3C39.255,99.542,39.1,99.7,39.2,99.794Z" transform="translate(-30.18 -99.575)" fill="#1278c5"/>
        </g>
      </g>
    </g>
  </g>
</svg>
