<svg xmlns="http://www.w3.org/2000/svg" width="18" height="17.653" viewBox="0 0 18 17.653">
  <g id="Delete" transform="translate(0.347)">
    <g id="Group_1483" data-name="Group 1483" transform="translate(0 0)">
      <g id="Group_1477" data-name="Group 1477" transform="translate(2.428 2.716)">
        <path id="Path_690" data-name="Path 690" d="M19.771,21.937H7V7H19.771ZM7.751,21.209H19.019V7.729H7.751Z" transform="translate(-7 -7)" fill="#0076c8"/>
      </g>
      <g id="Group_1478" data-name="Group 1478" transform="translate(4.682)">
        <path id="Path_691" data-name="Path 691" d="M21.263,4.148H13V1h8.263Zm-7.512-.787h6.761V1.787H13.751Z" transform="translate(-13 -1)" fill="#0076c8"/>
      </g>
      <g id="Group_1479" data-name="Group 1479" transform="translate(5.433 4.883)">
        <path id="Path_692" data-name="Path 692" d="M15.376,24.141A.375.375,0,0,1,15,23.766v-9.39a.376.376,0,1,1,.751,0v9.39A.375.375,0,0,1,15.376,24.141Z" transform="translate(-15 -14)" fill="#0076c8"/>
      </g>
      <g id="Group_1480" data-name="Group 1480" transform="translate(8.438 4.883)">
        <path id="Path_693" data-name="Path 693" d="M23.376,24.141A.375.375,0,0,1,23,23.766v-9.39a.376.376,0,1,1,.751,0v9.39A.375.375,0,0,1,23.376,24.141Z" transform="translate(-23 -14)" fill="#0076c8"/>
      </g>
      <g id="Group_1481" data-name="Group 1481" transform="translate(11.443 4.883)">
        <path id="Path_694" data-name="Path 694" d="M31.376,24.141A.375.375,0,0,1,31,23.766v-9.39a.376.376,0,1,1,.751,0v9.39A.375.375,0,0,1,31.376,24.141Z" transform="translate(-31 -14)" fill="#0076c8"/>
      </g>
      <g id="Group_1482" data-name="Group 1482" transform="translate(0 1.895)">
        <rect id="Rectangle_1667" data-name="Rectangle 1667" width="18" height="2" transform="translate(-0.347 0.105)" fill="#0076c8"/>
      </g>
    </g>
  </g>
</svg>
