<svg xmlns="http://www.w3.org/2000/svg" width="20.22" height="20.146" viewBox="0 0 20.22 20.146">
  <g id="iconfinder_44_schedule_Approved_business_calendar_event_plan_planning_4308321" transform="translate(-44.654 -45.451)">
    <g id="Group_1602" data-name="Group 1602" transform="translate(45.154 45.951)">
      <path id="Path_680" data-name="Path 680" d="M61.918,48.008H59.89V46.165a.214.214,0,0,0-.427,0v1.843H57.434V46.165a.214.214,0,0,0-.427,0v1.843H54.978V46.165a.214.214,0,0,0-.427,0v1.843H52.522V46.165a.214.214,0,0,0-.427,0v1.843H50.066V46.165a.214.214,0,0,0-.427,0v1.843H47.61V46.165a.214.214,0,0,0-.427,0v1.843H45.154v3.239H61.918Z" transform="translate(-45.154 -45.951)" fill="none" stroke="#394454" stroke-width="1"/>
      <path id="Path_681" data-name="Path 681" d="M300.488,296.655a3.874,3.874,0,0,0-3.88,3.86c0,.039,0,.077,0,.116,0,.01,0,.021,0,.031,0,.03,0,.06,0,.089l0,.028c0,.036.005.072.009.108v.006q.012.123.032.244v.007q.01.059.021.118v0q.024.119.055.237l.005.019q.012.044.025.089l.01.034.023.072q.018.056.038.111l.006.017q.015.041.031.082l0,.009a3.875,3.875,0,1,0,3.609-5.277Zm2.6,2.8-3.275,2.851a.214.214,0,0,1-.291-.01l-1.637-1.629a.214.214,0,1,1,.3-.3l1.5,1.489,3.125-2.721a.214.214,0,0,1,.281.322Z" transform="translate(-285.147 -285.23)" fill="none" stroke="#394454" stroke-width="1"/>
      <path id="Path_682" data-name="Path 682" d="M56.448,182.554c-.011-.031-.022-.062-.033-.093L56.4,182.4l-.014-.043q-.052-.166-.091-.338v0c-.008-.037-.016-.075-.024-.112v0q-.011-.055-.02-.11v-.007q-.009-.053-.016-.106l0-.011c0-.034-.009-.068-.013-.1l0-.015q-.005-.049-.01-.1l0-.019c0-.031,0-.062-.006-.093,0-.008,0-.016,0-.024,0-.03,0-.06,0-.09,0-.009,0-.017,0-.026,0-.038,0-.077,0-.115a4.3,4.3,0,0,1,4.307-4.287c.054,0,.108,0,.162,0h.036l.149.009.048,0,.114.012.076.01.1.014.073.012.113.022.084.018.056.013.139.036.048.013q.076.022.152.047l.035.012.041.013v-5.516H45.154v11.386H56.6q-.081-.172-.146-.35Zm2.3-9.208a.214.214,0,0,1,.214-.214H60.6a.214.214,0,0,1,.214.214v1.629a.214.214,0,0,1-.214.214H58.96a.214.214,0,0,1-.214-.214v-1.629ZM46.3,174.975v-1.629a.214.214,0,0,1,.214-.214h1.637a.214.214,0,0,1,.214.214v1.629a.214.214,0,0,1-.214.214H46.517A.214.214,0,0,1,46.3,174.975Zm2.15,3.666a.214.214,0,0,1-.214.214H46.6a.214.214,0,0,1-.214-.214v-1.629a.214.214,0,0,1,.214-.214H48.24a.214.214,0,0,1,.214.214Zm.972-5.3a.214.214,0,0,1,.214-.214h1.638a.214.214,0,0,1,.214.214v1.629a.214.214,0,0,1-.214.214H49.639a.214.214,0,0,1-.214-.214Zm2.107,5.3a.214.214,0,0,1-.214.214H49.681a.214.214,0,0,1-.214-.214v-1.629a.214.214,0,0,1,.214-.214h1.638a.214.214,0,0,1,.214.214Zm.972-3.666v-1.629a.214.214,0,0,1,.214-.214h1.637a.214.214,0,0,1,.214.214v1.629a.214.214,0,0,1-.214.214H52.717A.214.214,0,0,1,52.5,174.975Zm2.192,3.666a.214.214,0,0,1-.214.214H52.846a.214.214,0,0,1-.214-.214v-1.629a.214.214,0,0,1,.214-.214h1.637a.214.214,0,0,1,.214.214Zm.929-3.666v-1.629a.214.214,0,0,1,.214-.214h1.637a.214.214,0,0,1,.214.214v1.629a.214.214,0,0,1-.214.214H55.839A.214.214,0,0,1,55.625,174.975Z" transform="translate(-45.154 -165.8)" fill="none" stroke="#394454" stroke-width="1"/>
    </g>
  </g>
</svg>
