<svg xmlns="http://www.w3.org/2000/svg" width="13.999" height="16" viewBox="0 0 13.999 16">
  <g id="Group_1511" data-name="Group 1511" transform="translate(-601.001 -341)">
    <path id="Subtraction_3" data-name="Subtraction 3" d="M-3529.857,5569H-3535v-3a4,4,0,0,1,4-4h6a4,4,0,0,1,4,4v3h-5.143l-.371-1.047,1.734-1.369a.16.16,0,0,0,.052-.175.148.148,0,0,0-.15-.1h-2.219l-.754-2.142a.149.149,0,0,0-.149-.1.151.151,0,0,0-.15.1l-.754,2.142h-2.217a.148.148,0,0,0-.15.1.159.159,0,0,0,.05.175l1.734,1.369-.371,1.047Zm1.857-8a4,4,0,0,1-4-4,4,4,0,0,1,4-4,4,4,0,0,1,4,4A4,4,0,0,1-3528,5561Z" transform="translate(4136 -5212)" fill="#394454"/>
  </g>
</svg>
