<svg xmlns="http://www.w3.org/2000/svg" width="13.009" height="11.4" viewBox="0 0 13.009 11.4">
  <g id="noun_print_194442" transform="translate(-7.5 -12.8)">
    <path id="Path_713" data-name="Path 713" d="M10.764,12.8h6.512v1.624H10.764Zm8.948,2.452H8.312a.817.817,0,0,0-.812.812V20.14a.817.817,0,0,0,.812.812h2.436V24.2H17.26V20.936H19.7a.817.817,0,0,0,.812-.812v-4.06A.786.786,0,0,0,19.712,15.252Zm-3.264,8.136H11.576V19.312h4.888v4.076ZM19.9,16.462a.6.6,0,1,1-1.2,0,.589.589,0,0,1,.6-.6A.6.6,0,0,1,19.9,16.462Z" transform="translate(0 0)" fill="#0076c8"/>
  </g>
</svg>
