<svg xmlns="http://www.w3.org/2000/svg" width="18.234" height="15.631" viewBox="0 0 18.234 15.631">
  <g id="noun_Planning_1486350" transform="translate(-5.4 -11.8)">
    <g id="Group" transform="translate(5.4 11.8)">
      <path id="Compound_Path" data-name="Compound Path" d="M23.364,21.13,21.318,19.9a.614.614,0,0,0-.307-.082H18.106V16.833h2.169a.614.614,0,0,0,.614-.614V14.726A2.926,2.926,0,0,0,18.065,11.8H8.326A2.926,2.926,0,0,0,5.4,14.726V26.817a.614.614,0,0,0,.614.614H17.43a.614.614,0,0,0,.614-.614V23.5H20.99a.614.614,0,0,0,.307-.082l2.046-1.228a.614.614,0,0,0,0-1.043ZM16.837,26.2H6.628V14.726a1.708,1.708,0,0,1,3.417,0v1.494a.614.614,0,0,0,.614.614H16.9V19.82H10.72a.614.614,0,0,0-.614.614v2.455a.614.614,0,0,0,.614.614h6.138Zm3.99-3.928H13.584V21.048h7.243l1.023.614Z" transform="translate(-5.4 -11.8)"/>
    </g>
  </g>
</svg>
