<svg xmlns="http://www.w3.org/2000/svg" width="50.001" height="56.895" viewBox="0 0 50.001 56.895">
  <g id="Union_1" data-name="Union 1" transform="translate(3535.002 -5553)" fill="none">
    <path d="M-3535,5609.895V5589a4,4,0,0,1,4-4h42a4,4,0,0,1,4,4v20.892Zm10.715-42.67A14.255,14.255,0,0,1-3510,5553a14.255,14.255,0,0,1,14.284,14.224A14.254,14.254,0,0,1-3510,5581.447,14.255,14.255,0,0,1-3524.286,5567.224Z" stroke="none"/>
    <path d="M -3486.000244140625 5608.89453125 L -3486.000244140625 5589.0029296875 C -3486.000244140625 5587.3486328125 -3487.3466796875 5586.0029296875 -3489.00146484375 5586.0029296875 L -3531.00048828125 5586.0029296875 C -3532.6552734375 5586.0029296875 -3534.001708984375 5587.3486328125 -3534.001708984375 5589.0029296875 L -3534.001708984375 5608.89453125 L -3486.000244140625 5608.89453125 M -3510.000244140625 5580.44677734375 C -3506.451416015625 5580.44677734375 -3503.11474609375 5579.07080078125 -3500.60546875 5576.572265625 C -3498.09716796875 5574.07470703125 -3496.7158203125 5570.7548828125 -3496.7158203125 5567.22412109375 C -3496.7158203125 5563.69287109375 -3498.09716796875 5560.3720703125 -3500.60546875 5557.87451171875 C -3503.11474609375 5555.3759765625 -3506.451171875 5554 -3510.000244140625 5554 C -3513.5498046875 5554 -3516.886962890625 5555.3759765625 -3519.396484375 5557.87451171875 C -3521.90478515625 5560.3720703125 -3523.286376953125 5563.6923828125 -3523.286376953125 5567.22412109375 C -3523.286376953125 5570.7548828125 -3521.905029296875 5574.07470703125 -3519.396484375 5576.572265625 C -3516.88671875 5579.07080078125 -3513.5498046875 5580.44677734375 -3510.000244140625 5580.44677734375 M -3485.000244140625 5609.89453125 L -3535.001708984375 5609.89453125 L -3535.001708984375 5589.0029296875 C -3535.001708984375 5586.7939453125 -3533.2109375 5585.0029296875 -3531.00048828125 5585.0029296875 L -3489.00146484375 5585.0029296875 C -3486.791015625 5585.0029296875 -3485.000244140625 5586.7939453125 -3485.000244140625 5589.0029296875 L -3485.000244140625 5609.89453125 Z M -3510.000244140625 5581.44677734375 C -3517.89013671875 5581.44677734375 -3524.286376953125 5575.07861328125 -3524.286376953125 5567.22412109375 C -3524.286376953125 5559.3681640625 -3517.89013671875 5553 -3510.000244140625 5553 C -3502.11181640625 5553 -3495.7158203125 5559.3681640625 -3495.7158203125 5567.22412109375 C -3495.7158203125 5575.07861328125 -3502.11181640625 5581.44677734375 -3510.000244140625 5581.44677734375 Z" stroke="none" fill="#394454"/>
  </g>
</svg>
